<?xml version="1.0" encoding="UTF-8" standalone="no" ?>
<!DOCTYPE svg PUBLIC "-//W3C//DTD SVG 1.1//EN" "http://www.w3.org/Graphics/SVG/1.1/DTD/svg11.dtd">
<svg xmlns="http://www.w3.org/2000/svg" xmlns:xlink="http://www.w3.org/1999/xlink" version="1.1" width="500" height="500" viewBox="0 0 500 500" xml:space="preserve">
<desc>Created with Fabric.js 5.3.0</desc>
<defs>
</defs>
<g transform="matrix(12.1212299571 0 0 8.4483197517 256.8242914183 268.8402238368)" id="vNxUQ1v7x2obPegnPnUHY"  >
<path style="stroke: rgb(0,0,0); stroke-width: 1; stroke-dasharray: none; stroke-linecap: butt; stroke-dashoffset: 0; stroke-linejoin: miter; stroke-miterlimit: 4; fill: rgb(0,0,0); fill-rule: nonzero; opacity: 1;" vector-effect="non-scaling-stroke"  transform=" translate(-4.46771, -15.353005)" d="M 5.79374 0 L 2.4819199999999997 7.84476 L 8.93542 23.31648 L 5.793740000000001 30.70601 L 3.7102000000000004 30.70601 L 6.72278 24.029069999999997 L 0 7.844759999999997 L 3.7102 -2.6645352591003757e-15 z" stroke-linecap="round" />
</g>
<g transform="matrix(10.0957107603 0 0 7.428898967 343.1538343797 349.3119198782)" id="AhDmY4UQrx32Z_BUY_ZQq"  >
<path style="stroke: rgb(0,0,0); stroke-width: 1; stroke-dasharray: none; stroke-linecap: butt; stroke-dashoffset: 0; stroke-linejoin: miter; stroke-miterlimit: 4; fill: rgb(0,0,0); fill-rule: nonzero; opacity: 1;" vector-effect="non-scaling-stroke"  transform=" translate(-4.455815, -6.62755)" d="M 2.32668 13.2551 L 8.91163 0 L 6.7166500000000005 0 L 3.6875700000000005 6.0548 L 2.3266800000000005 5.28121 L 1.5803900000000004 6.70937 L 2.8534800000000002 7.60197 L 4.440892098500626e-16 13.255099999999999 z" stroke-linecap="round" />
</g>
<g transform="matrix(11.0719890064 0 0 7.9816532236 171.4778626415 190.2903137759)" id="-CFOKfWwJPLSn6jomM8Mi"  >
<path style="stroke: rgb(0,0,0); stroke-width: 1; stroke-dasharray: none; stroke-linecap: butt; stroke-dashoffset: 0; stroke-linejoin: miter; stroke-miterlimit: 4; fill: rgb(0,0,0); fill-rule: nonzero; opacity: 1;" vector-effect="non-scaling-stroke"  transform=" translate(-4.36866, -6.62755)" d="M 6.45615 0 L 0 13.2551 L 2.15205 13.2551 L 5.12188 7.2003 L 6.45615 7.973890000000001 L 7.18785 6.545730000000001 L 5.93966 5.653130000000001 L 8.73732 8.881784197001252e-16 z" stroke-linecap="round" />
</g>
</svg>